<svg xmlns="http://www.w3.org/2000/svg" viewBox="0 0 151 91" xmlns:v="https://vecta.io/nano"><path d="M.5.5h150v90H.5z" fill="#f7f8f9" stroke="#d2d2d2" stroke-miterlimit="10"/><g fill="#bdc5cb"><path d="M74.6 13.8h2c.2 0 .4.2.4.4v62.6c0 .2-.2.4-.4.4h-2c-.2 0-.4-.2-.4-.4V14.2c0-.2.2-.4.4-.4zm7.5 0h26v25h-26z"/><path d="M78.2 22.3l3.9-2.7V25zm0 28.2l3.9-2.7v5.4z"/><path d="M82.1 42h26v25h-26zM42.9 24h26v25h-26z"/><path d="M68.9 35.2v-5.4l3.9 2.7zm0 29.2V59l3.9 2.7z"/><path d="M42.9 52.2h26v25h-26z"/></g></svg>