<?xml version="1.0" encoding="utf-8"?>
<!-- Generator: Adobe Illustrator 25.4.1, SVG Export Plug-In . SVG Version: 6.00 Build 0)  -->
<svg version="1.1" id="Layer_1" xmlns="http://www.w3.org/2000/svg" xmlns:xlink="http://www.w3.org/1999/xlink" x="0px" y="0px"
	 viewBox="0 0 800 460" style="enable-background:new 0 0 800 460;" xml:space="preserve">
<style type="text/css">
	.st0{fill:#EAEAEA;}
	.st1{fill:#FFFFFF;}
	.st2{fill:#B2B2B2;}
	.st3{fill:#C4BFBF;}
	.st4{fill:#F06259;}
	.st5{font-family:'Lato-Bold';}
	.st6{font-size:15.8125px;}
</style>
<rect class="st0" width="800" height="460"/>
<g>
	<g>
		<g>
			<path class="st1" d="M272.25,324.66H97.78c-1.82,0-3.28-1.46-3.28-3.28V97.27c0-1.82,1.46-3.28,3.28-3.28h174.47
				c1.82,0,3.28,1.46,3.28,3.28v224.11C275.54,323.2,274.08,324.66,272.25,324.66z"/>
			<path class="st2" d="M243.42,252.76h-116.8c-1.09,0-1.82-0.91-1.82-1.82v-6.75c0-1.1,0.91-1.82,1.82-1.82h116.8
				c1.1,0,1.82,0.91,1.82,1.82v6.75C245.24,252.03,244.33,252.76,243.42,252.76z"/>
			<path class="st2" d="M257.29,270.28H112.57c-0.73,0-1.28-0.55-1.28-1.28v-2.55c0-0.73,0.55-1.28,1.28-1.28h144.72
				c0.73,0,1.28,0.55,1.28,1.28V269C258.56,269.73,258.02,270.28,257.29,270.28z"/>
			<path class="st2" d="M257.29,280.86H112.57c-0.73,0-1.28-0.55-1.28-1.28v-2.55c0-0.73,0.55-1.28,1.28-1.28h144.72
				c0.73,0,1.28,0.55,1.28,1.28v2.55C258.56,280.13,258.02,280.86,257.29,280.86z"/>
			<path class="st2" d="M257.29,291.27H112.57c-0.73,0-1.28-0.55-1.28-1.28v-2.55c0-0.73,0.55-1.28,1.28-1.28h144.72
				c0.73,0,1.28,0.55,1.28,1.28v2.55C258.56,290.72,258.02,291.27,257.29,291.27z"/>
			<path class="st2" d="M221.34,306.23h-72.82c-0.91,0-1.82-0.73-1.82-1.82v-3.47c0-0.91,0.73-1.82,1.82-1.82h72.82
				c0.91,0,1.82,0.73,1.82,1.82v3.47C223.16,305.32,222.25,306.23,221.34,306.23z"/>
			<g>
				<path class="st3" d="M252.91,109.5H116.76c-3.1,0-5.66,2.55-5.66,5.66v107.49c0,3.1,2.55,5.66,5.66,5.66h136.14
					c3.1,0,5.66-2.55,5.66-5.66V115.16C258.56,112.05,256.19,109.5,252.91,109.5z M247.25,160.78l-48.18,28.29l-35.59-31.02
					c-2.01-1.64-4.93-1.82-6.93-0.36l-33.94,24.64v-61.5h124.83v39.97H247.25z"/>
				<path class="st3" d="M198.16,167.17c10.22,0,18.61-8.39,18.61-18.61s-8.39-18.61-18.61-18.61s-18.61,8.39-18.61,18.61
					S187.76,167.17,198.16,167.17L198.16,167.17z"/>
			</g>
		</g>
		<path class="st1" d="M487.23,324.66H312.77c-1.82,0-3.28-1.46-3.28-3.28V97.27c0-1.82,1.46-3.28,3.28-3.28h174.47
			c1.82,0,3.28,1.46,3.28,3.28v224.11C490.34,323.2,488.88,324.66,487.23,324.66z"/>
		<path class="st2" d="M458.4,252.76H341.6c-1.1,0-1.82-0.91-1.82-1.82v-6.75c0-1.1,0.91-1.82,1.82-1.82h116.8
			c1.1,0,1.82,0.91,1.82,1.82v6.75C460.22,252.03,459.31,252.76,458.4,252.76z"/>
		<path class="st2" d="M472.27,270.28H327.55c-0.73,0-1.28-0.55-1.28-1.28v-2.55c0-0.73,0.55-1.28,1.28-1.28h144.72
			c0.73,0,1.28,0.55,1.28,1.28V269C473.55,269.73,473,270.28,472.27,270.28z"/>
		<path class="st2" d="M472.27,280.86H327.55c-0.73,0-1.28-0.55-1.28-1.28v-2.55c0-0.73,0.55-1.28,1.28-1.28h144.72
			c0.73,0,1.28,0.55,1.28,1.28v2.55C473.55,280.13,473,280.86,472.27,280.86z"/>
		<path class="st2" d="M472.27,291.27H327.55c-0.73,0-1.28-0.55-1.28-1.28v-2.55c0-0.73,0.55-1.28,1.28-1.28h144.72
			c0.73,0,1.28,0.55,1.28,1.28v2.55C473.55,290.72,473,291.27,472.27,291.27z"/>
		<path class="st2" d="M436.32,306.23H363.5c-0.91,0-1.82-0.73-1.82-1.82v-3.47c0-0.91,0.73-1.82,1.82-1.82h72.82
			c0.91,0,1.82,0.73,1.82,1.82v3.47C438.14,305.32,437.23,306.23,436.32,306.23z"/>
		<g>
			<path class="st3" d="M467.89,109.5H331.75c-3.1,0-5.66,2.55-5.66,5.66v107.49c0,3.1,2.55,5.66,5.66,5.66h136.14
				c3.1,0,5.66-2.55,5.66-5.66V115.16C473.55,112.05,470.99,109.5,467.89,109.5z M462.23,160.78l-48.18,28.29l-35.59-31.02
				c-2.01-1.64-4.93-1.82-6.93-0.36l-33.94,24.64v-61.5h124.83v39.97H462.23z"/>
			<path class="st3" d="M413.14,167.17c10.22,0,18.61-8.39,18.61-18.61s-8.39-18.61-18.61-18.61s-18.61,8.39-18.61,18.61
				S402.74,167.17,413.14,167.17L413.14,167.17z"/>
		</g>
		<path class="st1" d="M702.22,325.76H527.75c-1.82,0-3.28-1.46-3.28-3.28V98.55c0-1.82,1.46-3.28,3.28-3.28h174.47
			c1.82,0,3.28,1.46,3.28,3.28v224.11C705.32,324.3,703.86,325.76,702.22,325.76z"/>
		<path class="st2" d="M673.2,253.85H556.4c-1.09,0-1.83-0.91-1.83-1.82v-6.75c0-1.09,0.91-1.82,1.83-1.82h116.8
			c1.09,0,1.82,0.91,1.82,1.82v6.75C675.21,253.12,674.29,253.85,673.2,253.85z"/>
		<path class="st2" d="M687.25,271.56H542.53c-0.73,0-1.28-0.55-1.28-1.28v-2.55c0-0.73,0.55-1.28,1.28-1.28h144.72
			c0.73,0,1.28,0.55,1.28,1.28v2.55C688.53,270.83,687.98,271.56,687.25,271.56z"/>
		<path class="st2" d="M687.25,281.96H542.53c-0.73,0-1.28-0.55-1.28-1.28v-2.55c0-0.73,0.55-1.28,1.28-1.28h144.72
			c0.73,0,1.28,0.55,1.28,1.28v2.55C688.53,281.41,687.98,281.96,687.25,281.96z"/>
		<path class="st2" d="M687.25,292.36H542.53c-0.73,0-1.28-0.55-1.28-1.28v-2.55c0-0.73,0.55-1.28,1.28-1.28h144.72
			c0.73,0,1.28,0.55,1.28,1.28v2.55C688.53,291.81,687.98,292.36,687.25,292.36z"/>
		<path class="st2" d="M651.3,307.32h-72.82c-0.91,0-1.82-0.73-1.82-1.82v-3.47c0-0.91,0.73-1.82,1.82-1.82h72.82
			c0.91,0,1.82,0.73,1.82,1.82v3.47C653.12,306.41,652.21,307.32,651.3,307.32z"/>
		<g>
			<path class="st3" d="M682.87,110.59H546.91c-3.1,0-5.66,2.55-5.66,5.66v107.49c0,3.1,2.55,5.66,5.66,5.66h136.14
				c3.1,0,5.66-2.55,5.66-5.66V116.25C688.53,113.15,685.97,110.59,682.87,110.59z M677.21,161.87l-48.18,28.29l-35.59-31.02
				c-2.01-1.64-4.93-1.82-6.93-0.36l-33.94,24.64v-61.5H677.4v39.97H677.21z"/>
			<path class="st3" d="M628.12,168.26c10.22,0,18.61-8.39,18.61-18.61s-8.39-18.61-18.61-18.61c-10.22,0-18.61,8.39-18.61,18.61
				S617.72,168.26,628.12,168.26L628.12,168.26z"/>
		</g>
	</g>
	<g>
		<rect x="360.68" y="344.96" class="st1" width="21.05" height="21.05"/>
		<text transform="matrix(1 0 0 1 365.9687 360.6675)" class="st4 st5 st6">1</text>
		<rect x="389.4" y="344.96" class="st1" width="21.05" height="21.05"/>
		<text transform="matrix(1 0 0 1 394.7919 360.6675)" class="st4 st5 st6">2</text>
		<rect x="418.28" y="344.96" class="st1" width="21.05" height="21.05"/>
		<text transform="matrix(1 0 0 1 423.6152 360.6675)" class="st4 st5 st6">3</text>
	</g>
</g>
</svg>
