<svg version="1.1" id="Layer_1" xmlns="http://www.w3.org/2000/svg" xmlns:xlink="http://www.w3.org/1999/xlink" x="0px" y="0px" width="24px" height="24px" viewBox="0 0 288 288" enable-background="new 0 0 288 288" xml:space="preserve">
<style type="text/css">
	.st0{fill:#1E1E1E;}
</style>
<path fill="#1e1e1e" d="M262.102,20.977H27.615c-3.195,0-6.638,2.401-6.638,5.63v234.359c0,3.229,3.443,6.057,6.638,6.057h234.487c3.187,0,4.921-2.828,4.921-6.057V26.607C267.023,23.378,265.289,20.977,262.102,20.977z M118.37,53.441h51.26v43.571h-51.26V53.441z M55.15,53.441h51.26v43.571H55.15V53.441z M135.457,235.413H55.15v-46.134h80.307V235.413z M135.457,173.047H55.15v-46.134h80.307V173.047z M235.413,235.413h-80.307v-46.134h80.307V235.413z M235.413,173.047h-80.307v-46.134h80.307V173.047z M235.413,97.012h-51.26V53.441h51.26V97.012z"/><line fill="none" x1="-99" y1="-84" x2="-99" y2="-57"/><line fill="none" x1="-170" y1="61" x2="-170" y2="101"/></svg>