<svg xmlns="http://www.w3.org/2000/svg" viewBox="0 0 151 91" xmlns:v="https://vecta.io/nano"><path d="M.5.5h150v90H.5z" fill="#f7f8f9" stroke="#d2d2d2" stroke-miterlimit="10"/><g fill="#bdc5cb"><path d="M17.5 33h26v25h-26zm30 0h26v25h-26zm30 0h26v25h-26zm30 0h26v25h-26zm-96 12.5l3.2-3.2c.1-.1.1-.2.1-.3s0-.2-.1-.3l-.3-.3c-.1-.1-.2-.1-.3-.1s-.2 0-.3.1l-3.9 3.9c-.1.1-.1.2-.1.3s0 .2.1.3l3.9 3.9c.1.1.2.1.3.1s.2 0 .3-.1l.3-.3c.2-.2.2-.5 0-.7l-3.2-3.3zm128 0l-3.2 3.2c-.1.1-.1.2-.1.3s0 .2.1.3l.3.3c.1.1.2.1.3.1s.2 0 .3-.1l3.9-3.9c.1-.1.1-.2.1-.3s0-.2-.1-.3l-3.9-3.9c-.1-.1-.2-.1-.3-.1s-.2 0-.3.1l-.3.3c-.2.2-.2.5 0 .7l3.2 3.3z"/><circle cx="70.5" cy="63.4" r="1.8"/><circle cx="75.5" cy="63.4" r="1.8"/><circle cx="80.5" cy="63.4" r="1.8"/></g></svg>