<svg xmlns="http://www.w3.org/2000/svg" xmlns:xlink="http://www.w3.org/1999/xlink" viewBox="0 0 151 91" xmlns:v="https://vecta.io/nano"><path d="M.5.5h150v90H.5z" fill="#f7f8f9" stroke="#d2d2d2" stroke-miterlimit="10"/><path d="M21.4 24.1h108.2c.1 0 .3.2.3.4v11.2c0 .2-.1.4-.3.4H21.4c-.1 0-.3-.2-.3-.4V24.5c0-.3.1-.4.3-.4z" fill="#bdc5cb"/><use xlink:href="#B" fill="#fff"/><path d="M21.4 39.5h108.2c.1 0 .3.2.3.4v11.2c0 .2-.1.4-.3.4H21.4c-.1 0-.3-.2-.3-.4V39.9c0-.2.1-.4.3-.4z" fill="#bdc5cb"/><use xlink:href="#B" y="15.4" fill="#fff"/><path d="M21.4 54.9h108.2c.1 0 .3.2.3.4v11.2c0 .2-.1.4-.3.4H21.4c-.1 0-.3-.2-.3-.4V55.3c0-.2.1-.4.3-.4z" fill="#bdc5cb"/><path d="M30.2 60.4h-1.7v-1.7c0-.2-.2-.4-.4-.4h-.4c-.2 0-.4.2-.4.4v1.7h-1.7c-.2 0-.4.2-.4.4v.4c0 .2.2.4.4.4h1.7v1.7c0 .2.2.4.4.4h.4c.2 0 .4-.2.4-.4v-1.7h1.7c.2 0 .4-.2.4-.4v-.4c0-.3-.2-.4-.4-.4z" fill="#fff"/><defs ><path id="B" d="M30.2 29.5h-1.7v-1.7c0-.2-.2-.4-.4-.4h-.4c-.2 0-.4.2-.4.4v1.7h-1.7c-.2 0-.4.2-.4.4v.4c0 .2.2.4.4.4h1.7v1.7c0 .2.2.4.4.4h.4c.2 0 .4-.2.4-.4v-1.7h1.7c.2 0 .4-.2.4-.4v-.4c0-.2-.2-.4-.4-.4z"/></defs></svg>