<svg xmlns="http://www.w3.org/2000/svg" viewBox="0 0 97 95" xmlns:v="https://vecta.io/nano"><path d="M.5.5h96v94H.5z" fill="#fff" stroke="#d2d2d2" stroke-miterlimit="10"/><path d="M22.4 9.838a2.69 2.69 0 0 0-2.7 2.7v31.9l17.1-18.1c.2-.2.5-.4.8-.4.4-.1.9.1 1.2.4l13.8 15.5 9.6-10.2c.2-.2.5-.4.8-.4.4-.1.9.1 1.2.4l13 14.5v-33.7a2.69 2.69 0 0 0-2.7-2.7l-52.1.1zm30.8 9.4c2.2 0 4 1.8 4 4s-1.8 4-4 4-4-1.8-4-4 1.8-4 4-4zm-15.4 10l-18 19.1v1.6a2.69 2.69 0 0 0 2.7 2.7h36.2l-20.9-23.4zm25.4 5.3l-8.8 9.3 7.8 8.8h12.4c1.4 0 2.5-1.1 2.7-2.4l-14.1-15.7zM20.5 57.6h56v3.5h-56z" fill="#abb4ba"/><path d="M34.9 63.9h27.3v3H34.9zm-14.4 6.8h56v2h-56zm0 4h56v2h-56zm0 4h51.9v2H20.5z" fill="#bdc5cb"/><path d="M20.5 83.7h21v2h-21z" fill="#abb4ba"/></svg>