<svg xmlns="http://www.w3.org/2000/svg" viewBox="0 0 97 95" xmlns:v="https://vecta.io/nano"><path d="M.5.5h96v94H.5z" fill="#fff" stroke="#d2d2d2" stroke-miterlimit="10"/><path d="M10.8 34.538a1.58 1.58 0 0 0-1.6 1.6v19.4l10.4-11c.1-.1.3-.2.5-.3.3 0 .6.1.7.3l8.4 9.4 5.8-6.2c.1-.1.3-.2.5-.3.3 0 .6.1.7.3l7.9 8.8v-20.5a1.58 1.58 0 0 0-1.6-1.6H10.8zm18.7 5.6c1.3 0 2.4 1.1 2.4 2.4s-1.1 2.4-2.4 2.4-2.5-1-2.5-2.3 1.1-2.5 2.5-2.5zm-9.4 6.1l-11 11.6v1a1.58 1.58 0 0 0 1.6 1.6h22l-12.6-14.2zm15.4 3.3l-5.3 5.7 4.7 5.3h7.5c.8 0 1.5-.6 1.6-1.5l-8.5-9.5zm13-12.738h28.3v3H48.5z" fill="#abb4ba"/><path d="M48.5 42.4h15.1v2.2H48.5zm0 5.4h39.3v2H48.5zm0 4h39.3v2H48.5z" fill="#bdc5cb"/><path d="M48.5 56.8H64v2H48.5z" fill="#abb4ba"/></svg>