<svg xmlns="http://www.w3.org/2000/svg" viewBox="0 0 97 95" xmlns:v="https://vecta.io/nano"><path d="M.5.5h96v94H.5z" fill="#fff" stroke="#d2d2d2" stroke-miterlimit="10"/><path d="M10.7 15.438c-2.1 0-3.9 1.7-3.9 3.9v46.3l24.8-26.3c.3-.3.7-.5 1.1-.6.6-.1 1.3.1 1.8.6l20 22.5 13.9-14.8c.3-.3.7-.5 1.1-.6.6-.1 1.3.1 1.8.6l18.9 21.1v-48.9c0-2.1-1.7-3.9-3.9-3.9l-75.6.1zm44.6 13.5c3.2 0 5.8 2.6 5.8 5.8s-2.6 5.8-5.8 5.8-5.8-2.6-5.8-5.8c0-3.1 2.6-5.8 5.8-5.8zM33 43.438l-26.1 27.7v2.4c0 2.1 1.7 3.9 3.9 3.9h52.5l-30.3-34zm36.8 7.8L57 64.738l11.3 12.7h18c2 0 3.7-1.5 3.8-3.5l-20.3-22.7z" fill="#abb4ba"/><path d="M1 1h95.1v92.9H1z" opacity=".5"/><path d="M20.5 33.4h56v3.5h-56zm14.4 6.4h27.3v3H34.9zm-14.4 6.8h56v2h-56zm0 4h56v2h-56zm0 4h51.9v2H20.5zm0 5h21v2h-21z" fill="#fff"/></svg>