<svg xmlns="http://www.w3.org/2000/svg" viewBox="0 0 97 95" xmlns:v="https://vecta.io/nano"><path d="M.5.5h96v94H.5z" fill="#fff" stroke="#d2d2d2" stroke-miterlimit="10"/><path d="M67.3 77H29.7a1.11 1.11 0 0 1-1.1-1.1V19.2a1.11 1.11 0 0 1 1.1-1.1h37.7a1.11 1.11 0 0 1 1.1 1.1v56.6c0 .7-.5 1.2-1.2 1.2z" fill="#8c9599"/><path d="M33.8 21.638a1.54 1.54 0 0 0-1.5 1.5v18l9.6-10.2a.76.76 0 0 1 .4-.2c.3 0 .5.1.7.2l7.8 8.8 5.4-5.8a.76.76 0 0 1 .4-.2c.3 0 .5.1.7.2l7.4 8.2v-19.1a1.54 1.54 0 0 0-1.5-1.5l-29.4.1zm17.3 5.3a2.26 2.26 0 0 1 2.3 2.3 2.26 2.26 0 0 1-2.3 2.3 2.26 2.26 0 0 1-2.3-2.3c0-1.3 1.1-2.3 2.3-2.3zm-8.7 5.6l-10.2 10.8v.9a1.54 1.54 0 0 0 1.5 1.5h20.5l-11.8-13.2zm14.4 3.1l-5 5.3 4.4 4.9h7c.8 0 1.4-.6 1.5-1.4l-7.9-8.8zM32.2 49.5h32.5v3H32.2zm8.7 5.9H56v2.2H40.9zm-8.6 5h32.4v2H32.3zm0 3.5h32.4v2H32.3zm0 3.5h29.4v2H32.3zm0 4h13.6v2H32.3z" fill="#fff"/></svg>