<svg xmlns="http://www.w3.org/2000/svg" viewBox="0 0 97 95" xmlns:v="https://vecta.io/nano"><path d="M.5.5h96v94H.5z" fill="#fff" stroke="#d2d2d2" stroke-miterlimit="10"/><path d="M10.7 15.438c-2.1 0-3.9 1.7-3.9 3.9v46.2l24.7-26.2c.3-.3.7-.5 1.1-.6.6-.1 1.3.1 1.8.6l20 22.5 13.9-14.8c.3-.3.7-.5 1.1-.6.6-.1 1.3.1 1.8.6l18.9 21.1v-48.8c0-2.1-1.7-3.9-3.9-3.9H10.7zm44.6 13.6c3.2 0 5.8 2.6 5.8 5.8s-2.6 5.8-5.8 5.8-5.8-2.6-5.8-5.8 2.6-5.8 5.8-5.8zM33 43.438l-26.1 27.7v2.4c0 2.1 1.7 3.9 3.9 3.9h52.4l-30.2-34zm36.8 7.8L57 64.738l11.3 12.7h17.9c2 0 3.7-1.5 3.8-3.5l-20.2-22.7z" fill="#abb4ba"/><path d="M79.9 69.3H17.1c-.2 0-.3-.1-.3-.3V26c0-.2.1-.3.3-.3H80c.2 0 .3.1.3.3v43c-.1.1-.2.3-.4.3z" opacity=".5"/><path d="M23.1 36.4H74v3.5H23.1zm13 6.3h24.8v3H36.1zm3.1-12.2h18.5v2.6H39.2zm-16.1 19H74v2H23.1zm0 4H74v2H23.1zm0 4h47.2v2H23.1zm15.8 5H58v2H38.9z" fill="#fff"/></svg>