<svg xmlns="http://www.w3.org/2000/svg" height="100" width="100" fill="#000000" viewBox="0 0 24 24" xmlns:v="https://vecta.io/nano"><path d="M6 2.999a3.02 3.02 0 0 0-3 3v12a3.02 3.02 0 0 0 3 3h12a3.02 3.02 0 0 0 3-3v-7h-2v7c0 .571-.429 1-1 1H6c-.571 0-1-.429-1-1v-12c0-.571.429-1 1-1h7v-2z"/><g transform="matrix(.707107 .707107 -.707107 .707107 752.385811 -720.608029)" fill="none" stroke="#000"><path d="M-7 1029.362a1 1 0 0 0-1 1v13l2.5 4 2.5-4v-13a1 1 0 0 0-1-1z" stroke-width="2" stroke-linejoin="round"/><path d="M-8 1032.862h5m-5 10h5"/></g></svg>