<svg xmlns="http://www.w3.org/2000/svg" viewBox="0 0 97 95" xmlns:v="https://vecta.io/nano"><path d="M.5.5h96v94H.5z" fill="#fff" stroke="#d2d2d2" stroke-miterlimit="10"/><path d="M54.5 34.538a1.58 1.58 0 0 0-1.6 1.6v20.5l7.9-8.8a1.08 1.08 0 0 1 .7-.3c.2 0 .3.1.5.3l5.8 6.2 8.4-9.4a1.08 1.08 0 0 1 .7-.3c.2 0 .3.1.5.3l10.4 11v-19.4a1.58 1.58 0 0 0-1.6-1.6H54.5zm15.5 8.1c0 1.3-1.1 2.4-2.4 2.4s-2.4-1.1-2.4-2.4 1.1-2.4 2.4-2.4 2.4 1 2.4 2.4zm-5.8 17.9h22a1.58 1.58 0 0 0 1.6-1.6v-1l-11-11.6-12.6 14.2zm-11.3-1.5c.1.8.8 1.5 1.6 1.5H62l4.7-5.3-5.3-5.7-8.5 9.5zm-4.478-19.289h-28.3v-3h28.3z" fill="#abb4ba"/><path d="M48.504 44.536h-15.1v-2.2h15.1zm.007 5.27h-39.3v-2h39.3zm0 3.981h-39.3v-2h39.3z" fill="#bdc5cb"/><path d="M48.438 58.749h-15.5v-2h15.5z" fill="#abb4ba"/></svg>